<svg width="101" height="50" viewBox="0 0 101 50" fill="none" xmlns="http://www.w3.org/2000/svg">
<path d="M16.888 16.688V12.424H22.868V16.688H28.172V22.876H23.44C23.9253 23.2573 24.428 23.6907 24.948 24.176C25.468 24.6613 26.0227 25.1813 26.612 25.736C27.236 26.36 27.808 26.932 28.328 27.452C28.8827 27.972 29.368 28.4747 29.784 28.96C30.304 28.024 30.7893 27.0533 31.24 26.048C31.6907 25.0427 32.124 24.0027 32.54 22.928H29.108V16.74H33.372V12.424H39.352V16.74H46.684V22.928H39.456C40.184 24.8 41.328 26.8627 42.888 29.116C44.1013 30.988 45.2973 32.6347 46.476 34.056C47.6893 35.4427 48.868 36.6387 50.012 37.644L45.644 42.636C44.292 41.2147 43.096 39.8453 42.056 38.528C41.0507 37.176 40.1493 35.8413 39.352 34.524V48.512H33.372V34.524C31.2573 38.1987 29.0387 41.18 26.716 43.468L22.868 39.724V48.512H16.888V35.616C16.2987 36.6907 15.692 37.748 15.068 38.788C14.444 39.7933 13.7853 40.7813 13.092 41.752L10.128 39.256C9.296 42.7227 7.996 46.2413 6.228 49.812L0.248 46.328C1.35733 44.2827 2.24133 42.376 2.9 40.608C3.59333 38.84 4.07867 37.1933 4.356 35.668C4.91067 32.6867 5.188 27.7293 5.188 20.796V4.936H23.856C23.648 4.13866 23.4573 3.428 23.284 2.804C23.1453 2.18 22.9893 1.62533 22.816 1.14L29.472 0.151997C29.5067 0.290664 29.576 0.53333 29.68 0.879997C29.8187 1.22667 29.9573 1.62533 30.096 2.076C30.2347 2.492 30.3733 2.96 30.512 3.48C30.6853 3.96533 30.8413 4.45066 30.98 4.936H47.568V11.176H11.636V22.356C11.6013 24.644 11.532 26.7413 11.428 28.648C11.3587 30.5547 11.2373 32.3053 11.064 33.9C12.2427 32.1667 13.3347 30.208 14.34 28.024C14.756 27.088 15.1373 26.204 15.484 25.372C15.8653 24.5053 16.212 23.6733 16.524 22.876H12.624V16.688H16.888ZM22.92 30.208C22.8853 30.208 22.868 30.1907 22.868 30.156V38.476C23.5267 37.7827 24.1507 37.0893 24.74 36.396C25.3293 35.668 25.9187 34.9053 26.508 34.108C25.6067 33.0333 24.4107 31.7333 22.92 30.208ZM81.368 13.048L81.836 11.072L82.252 8.836H71.8V2.752H99.932V8.836H89.168L88.648 11.176L88.18 13.048H98.112V36.812H92.34L93.64 37.852C95.2 39.0653 96.5867 40.2267 97.8 41.336C99.048 42.4107 100.088 43.3467 100.92 44.144L96.708 49.188C95.044 47.3507 92.7213 45.184 89.74 42.688C89.012 42.064 88.3187 41.492 87.66 40.972C87.0013 40.4173 86.3773 39.8973 85.788 39.412L85.06 40.504C82.8413 43.6587 78.4733 46.744 71.956 49.76L68.472 44.04C71.5573 42.8267 74.036 41.6133 75.908 40.4C77.8147 39.1867 79.1493 38.0253 79.912 36.916C81.4373 34.6627 82.2 31.4733 82.2 27.348V20.016H88.388V28.596C88.388 30.364 88.232 32.028 87.92 33.588C88.5093 34.004 89.1333 34.4547 89.792 34.94C90.4507 35.3907 91.1613 35.9107 91.924 36.5V18.664H78.82V36.76H72.684V13.048H81.368ZM51.936 45.86C53.6 43.5027 54.952 41.2667 55.992 39.152C57.0667 37.0373 57.8467 35.1133 58.332 33.38C59.164 30.5373 59.632 27.14 59.736 23.188L55.368 24.176C55.2987 23.24 55.16 22.2173 54.952 21.108C54.7787 19.964 54.5187 18.612 54.172 17.052C53.86 15.492 53.548 14.1053 53.236 12.892C52.924 11.6787 52.6293 10.6213 52.352 9.72L57.344 8.524C57.656 9.39067 57.968 10.4133 58.28 11.592C58.592 12.7707 58.9213 14.14 59.268 15.7C59.3373 16.1507 59.424 16.584 59.528 17C59.632 17.3813 59.7187 17.7627 59.788 18.144V0.879997H65.924V13.412L66.184 12.892C66.7387 11.8867 67.2413 10.9333 67.692 10.032C68.1773 9.13067 68.5587 8.368 68.836 7.744L73.932 9.98C73.62 10.6733 73.2213 11.488 72.736 12.424C72.2507 13.3253 71.6787 14.3307 71.02 15.44C69.7373 17.624 68.5933 19.3053 67.588 20.484L65.872 19.236C65.768 22.4253 65.56 25.3373 65.248 27.972C67.12 30.1213 68.732 32.1147 70.084 33.952C71.4707 35.7893 72.4933 37.2627 73.152 38.372L67.952 42.532C67.2587 41.2147 66.2533 39.5853 64.936 37.644L63.792 35.98C63.168 38.268 62.336 40.504 61.296 42.688C60.2907 44.8373 59.06 47.0387 57.604 49.292L51.936 45.86Z" fill="#C11A1A"/>
</svg>
